<?xml version="1.0"?>
<svg xmlns="http://www.w3.org/2000/svg" xmlns:xlink="http://www.w3.org/1999/xlink" xmlns:svgjs="http://svgjs.com/svgjs" version="1.1" width="512" height="512" x="0" y="0" viewBox="0 0 512.001 512.001" style="enable-background:new 0 0 512 512" xml:space="preserve" class=""><g transform="matrix(-1,-3.67394039744206e-16,3.67394039744206e-16,-1,511.99998188018793,512.0009918212891)">
<polygon xmlns="http://www.w3.org/2000/svg" style="" points="256,41 238.676,70.979 256,256 469.851,471 504.5,471 " fill="#12127c" data-original="#901c0f" class=""/>
<polygon xmlns="http://www.w3.org/2000/svg" style="" points="7.5,471 469.851,471 238.676,70.979 " fill="#4444dd" data-original="#e0230d" class=""/>
<path xmlns="http://www.w3.org/2000/svg" d="M510.994,467.248l-248.5-430c-1.34-2.319-3.814-3.747-6.493-3.747c-2.679,0-5.153,1.428-6.494,3.747L132.763,239.26  c-2.073,3.586-0.846,8.174,2.74,10.246s8.175,0.846,10.246-2.741L256,55.99L491.503,463.5H20.497l110.24-190.76  c2.073-3.586,0.846-8.174-2.74-10.246c-3.586-2.072-8.175-0.845-10.246,2.741L1.006,467.248c-1.341,2.321-1.342,5.18-0.002,7.501  S4.82,478.5,7.5,478.5h497c2.68,0,5.156-1.43,6.496-3.751C512.336,472.428,512.335,469.568,510.994,467.248z" fill="#000000" data-original="#000000" style="" class=""/>
<g xmlns="http://www.w3.org/2000/svg">
</g>
<g xmlns="http://www.w3.org/2000/svg">
</g>
<g xmlns="http://www.w3.org/2000/svg">
</g>
<g xmlns="http://www.w3.org/2000/svg">
</g>
<g xmlns="http://www.w3.org/2000/svg">
</g>
<g xmlns="http://www.w3.org/2000/svg">
</g>
<g xmlns="http://www.w3.org/2000/svg">
</g>
<g xmlns="http://www.w3.org/2000/svg">
</g>
<g xmlns="http://www.w3.org/2000/svg">
</g>
<g xmlns="http://www.w3.org/2000/svg">
</g>
<g xmlns="http://www.w3.org/2000/svg">
</g>
<g xmlns="http://www.w3.org/2000/svg">
</g>
<g xmlns="http://www.w3.org/2000/svg">
</g>
<g xmlns="http://www.w3.org/2000/svg">
</g>
<g xmlns="http://www.w3.org/2000/svg">
</g>
</g></svg>
